<svg width="84" height="84" viewBox="0 0 84 84" fill="none" xmlns="http://www.w3.org/2000/svg">
<path d="M42 0C18.8403 0 0 18.8403 0 42C0 65.1597 18.8403 84 42 84C65.1597 84 84 65.1597 84 42C84 18.8403 65.1597 0 42 0ZM63.2871 33.0996L40.5369 55.8492C39.8544 56.5317 38.9584 56.8752 38.0625 56.8752C37.1666 56.8752 36.2706 56.5317 35.5881 55.8492L24.2133 44.4744C22.8444 43.1061 22.8444 40.8939 24.2133 39.5256C25.5816 38.1567 27.7932 38.1567 29.1621 39.5256L38.0625 48.426L58.3383 28.1508C59.7066 26.7819 61.9182 26.7819 63.2871 28.1508C64.6554 29.5191 64.6554 31.7307 63.2871 33.0996Z" fill="#00AEC6"/>
</svg>
